<?xml version="1.0" standalone="no"?>
<!DOCTYPE svg PUBLIC "-//W3C//DTD SVG 20010904//EN"
 "http://www.w3.org/TR/2001/REC-SVG-20010904/DTD/svg10.dtd">
<svg version="1.0" xmlns="http://www.w3.org/2000/svg"
 width="1814.000000pt" height="421.000000pt" viewBox="0 0 1814.000000 421.000000"
 preserveAspectRatio="xMidYMid meet">

<g transform="translate(0.000000,421.000000) scale(0.100000,-0.100000)"
fill="#000000" stroke="none">
<path d="M970 3921 c-5 -11 -10 -40 -10 -64 0 -37 4 -46 25 -55 14 -7 45 -12
68 -12 27 0 60 -10 92 -28 40 -22 55 -38 80 -87 l30 -60 0 -1380 0 -1380 -28
-50 c-34 -61 -81 -101 -145 -122 -26 -8 -63 -23 -82 -32 -33 -15 -35 -19 -38
-70 -2 -37 1 -57 10 -62 7 -5 279 -9 603 -9 669 0 635 -4 635 75 0 35 -5 48
-26 64 -15 12 -37 21 -50 21 -44 0 -114 41 -149 87 -66 87 -65 76 -63 708 l3
570 310 0 c351 -1 388 -6 463 -71 65 -55 98 -144 116 -314 10 -85 24 -100 93
-100 58 0 107 19 117 45 3 9 6 289 6 621 l0 605 -25 24 c-20 21 -34 25 -80 25
-46 0 -60 -4 -80 -25 -21 -20 -25 -34 -25 -83 0 -84 -25 -219 -51 -272 -25
-51 -66 -92 -124 -121 -36 -19 -65 -22 -295 -27 -140 -4 -293 -5 -340 -2 l-85
5 -3 658 -2 657 562 0 c378 0 573 -4 597 -11 115 -35 198 -104 230 -190 7 -19
17 -43 21 -54 17 -41 24 -88 46 -332 8 -87 35 -113 116 -113 56 0 100 16 120
45 4 5 8 206 8 446 l0 436 -26 27 -27 26 -1293 0 c-1268 0 -1293 0 -1304 -19z"/>
<path d="M12066 3918 c-40 -57 -5 -128 63 -128 50 0 113 -38 133 -80 38 -82
38 -73 38 -1491 0 -1360 0 -1385 -20 -1439 -26 -71 -60 -101 -145 -132 -81
-29 -106 -58 -89 -105 l9 -28 530 0 530 0 6 35 c3 19 2 43 -3 52 -8 17 -62 48
-83 48 -44 0 -135 83 -151 138 -4 15 -9 724 -10 1575 -2 1174 -6 1552 -15
1563 -9 12 -75 14 -395 14 l-383 0 -15 -22z"/>
<path d="M14180 2900 c-292 -27 -492 -116 -681 -301 -76 -74 -179 -211 -179
-238 0 -5 -4 -11 -8 -13 -25 -10 -100 -213 -127 -343 -31 -150 -40 -460 -17
-590 7 -38 15 -86 18 -105 3 -19 9 -44 13 -55 5 -11 16 -47 26 -80 52 -181
176 -361 335 -489 57 -46 173 -115 236 -141 38 -15 78 -31 89 -36 11 -4 61
-18 110 -30 79 -20 116 -23 305 -23 231 -1 266 4 425 57 120 40 175 66 265
125 74 49 92 63 160 126 87 81 187 218 232 316 29 62 79 223 108 345 27 116
22 445 -9 585 -5 25 -13 59 -16 75 -4 17 -10 39 -14 50 -5 11 -14 38 -21 60
-26 80 -91 200 -155 284 -157 205 -387 349 -635 398 -144 28 -313 36 -460 23z
m289 -269 c99 -36 178 -94 237 -174 53 -72 124 -211 124 -243 0 -13 4 -25 9
-28 5 -3 11 -18 14 -33 4 -16 11 -50 17 -78 26 -124 34 -215 34 -420 1 -288
-10 -371 -71 -564 -62 -195 -196 -329 -378 -376 -64 -17 -164 -20 -209 -6 -17
5 -51 15 -76 22 -55 16 -172 91 -208 135 -77 94 -144 241 -170 374 -6 30 -16
80 -22 110 -14 66 -7 592 8 685 57 336 195 539 417 613 17 5 67 10 112 11 68
1 97 -4 162 -28z"/>
<path d="M4285 2873 c-31 -3 -91 -17 -160 -35 -135 -35 -273 -116 -366 -214
-106 -112 -159 -239 -159 -379 0 -46 5 -97 11 -112 32 -79 43 -95 82 -129 129
-113 294 -45 321 132 4 21 11 71 17 109 21 140 48 215 102 280 35 42 98 85
126 85 11 0 23 5 26 10 16 26 220 5 284 -30 69 -36 123 -104 150 -188 36 -112
38 -477 2 -489 -45 -14 -155 -56 -191 -72 -8 -4 -69 -24 -135 -45 -66 -21
-128 -42 -137 -47 -10 -5 -25 -9 -33 -9 -8 0 -23 -4 -33 -10 -9 -5 -91 -34
-182 -63 -204 -67 -308 -125 -402 -225 -63 -67 -118 -160 -141 -240 -14 -49
-14 -267 1 -317 52 -181 219 -347 397 -393 22 -6 59 -15 81 -21 23 -6 99 -11
170 -11 117 0 157 5 294 37 74 18 230 123 313 212 39 42 51 50 63 40 8 -6 14
-17 14 -25 0 -21 66 -126 97 -156 34 -32 84 -59 138 -77 42 -13 223 -10 295 5
113 23 310 218 310 306 0 44 -12 50 -64 37 -57 -14 -129 -8 -176 14 -35 17
-64 54 -85 107 -5 15 -12 308 -16 705 -3 374 -11 705 -16 735 -34 188 -136
331 -283 397 -14 6 -43 19 -65 29 -88 39 -211 54 -435 52 -102 0 -198 -3 -215
-5z m463 -1428 c3 -251 -5 -330 -43 -412 -53 -110 -214 -203 -356 -203 -89 0
-190 41 -242 99 -41 46 -57 80 -77 164 -24 102 16 237 92 317 75 78 123 111
205 142 183 69 362 127 388 125 l30 -2 3 -230z"/>
<path d="M7050 2874 c-53 -11 -186 -59 -200 -74 -3 -3 -22 -14 -42 -25 -20
-10 -50 -31 -65 -45 -15 -15 -41 -35 -57 -45 -23 -16 -108 -122 -153 -191 -23
-36 -30 5 -32 175 -2 141 -4 168 -18 179 -13 9 -105 12 -383 12 -417 0 -410 1
-410 -74 0 -52 13 -66 61 -66 46 0 126 -33 152 -63 55 -64 52 -4 52 -987 l0
-905 -30 -38 c-27 -33 -134 -97 -164 -97 -14 0 -41 -53 -41 -79 0 -11 9 -25
19 -31 23 -12 989 -14 1008 -2 7 4 15 26 18 48 8 48 3 53 -84 84 -77 27 -115
59 -142 119 -19 43 -19 65 -16 685 2 442 7 656 15 689 14 58 65 163 95 197 59
66 155 125 243 149 53 14 157 13 214 -2 128 -34 229 -155 269 -320 17 -71 15
-1332 -1 -1389 -16 -52 -61 -98 -124 -126 -79 -36 -79 -36 -82 -84 -2 -36 1
-47 15 -53 30 -11 935 -6 950 7 14 11 17 55 7 82 -6 17 -40 34 -108 58 -45 15
-89 64 -105 117 -15 52 -16 1262 0 1329 10 46 22 79 40 114 5 10 9 22 9 28 0
6 18 36 41 66 42 58 100 105 159 131 19 8 43 19 52 24 10 5 67 9 128 9 131 0
178 -17 250 -90 40 -41 57 -69 104 -169 8 -17 11 -226 11 -720 0 -753 1 -734
-54 -794 -22 -24 -117 -77 -138 -77 -29 0 -44 -88 -19 -109 11 -9 140 -12 510
-11 273 0 503 3 511 6 19 8 21 87 3 102 -7 5 -35 17 -63 26 -73 25 -122 60
-147 109 -25 47 -24 26 -32 1077 -2 322 -8 539 -14 560 -6 19 -19 64 -29 100
-38 137 -145 256 -293 326 -110 52 -149 59 -340 59 -169 0 -190 -3 -295 -37
-118 -39 -277 -166 -380 -305 -22 -29 -46 -53 -55 -53 -9 0 -29 30 -50 72 -60
125 -193 247 -325 298 -54 21 -79 24 -240 26 -99 1 -191 0 -205 -2z"/>
<path d="M16780 2874 c-44 -8 -110 -39 -170 -78 -65 -43 -186 -170 -233 -244
-21 -35 -44 -61 -51 -59 -7 2 -12 59 -14 177 -2 124 -6 176 -15 182 -16 10
-768 10 -785 0 -13 -9 -17 -35 -14 -83 2 -29 35 -49 82 -49 16 0 32 -4 35 -10
3 -5 15 -10 25 -10 21 0 80 -66 80 -90 0 -9 5 -21 11 -27 7 -7 10 -281 9 -891
0 -846 -1 -883 -20 -926 -21 -50 -81 -100 -139 -116 -63 -17 -81 -36 -81 -84
0 -31 5 -46 16 -50 20 -8 1002 -8 1032 0 19 6 22 13 22 55 0 46 -2 50 -32 63
-18 8 -55 21 -83 28 -65 17 -116 67 -132 131 -17 63 -18 1077 -2 1222 12 107
44 212 84 280 27 48 129 145 151 145 8 0 14 3 14 8 0 13 77 32 129 32 44 0 52
-4 82 -37 19 -21 48 -59 64 -85 68 -108 211 -118 311 -23 108 103 111 336 5
448 -20 21 -56 51 -81 65 -41 25 -55 27 -160 29 -63 1 -126 -1 -140 -3z"/>
<path d="M9526 2844 c-20 -19 -20 -47 -1 -83 16 -32 33 -41 75 -41 16 0 32 -4
35 -10 3 -5 15 -10 25 -10 25 0 85 -60 96 -96 4 -16 11 -389 14 -829 4 -542
10 -813 17 -840 7 -22 16 -57 21 -78 44 -171 195 -312 404 -377 121 -38 399
-43 505 -9 154 48 254 112 372 234 87 89 85 90 96 -55 4 -52 11 -105 16 -117
l9 -23 357 0 c197 0 364 4 371 9 9 5 12 24 10 52 -3 44 -3 44 -74 79 -87 42
-100 53 -125 101 -18 37 -19 71 -19 1063 0 1003 0 1026 -19 1036 -21 11 -747
15 -775 4 -24 -9 -23 -114 1 -114 19 0 72 -16 118 -36 49 -21 75 -61 94 -146
13 -58 15 -1361 2 -1404 -5 -16 -15 -49 -22 -74 -61 -209 -327 -329 -554 -250
-54 19 -82 37 -122 77 -29 28 -53 59 -53 67 0 9 -4 24 -9 34 -49 96 -51 135
-51 1019 l0 821 -22 6 c-13 3 -193 6 -400 6 -329 0 -379 -2 -392 -16z"/>
</g>
</svg>
